<svg id="keyboard" viewBox="0 0 1602 420" fill="none" xmlns="http://www.w3.org/2000/svg">
<path id="c_sharp1" d="M65 0H121V260C121 268.284 114.284 275 106 275H80C71.7157 275 65 268.284 65 260V0Z" fill="black"/>
<path id="d_sharp1" d="M191 0H247V260C247 268.284 240.284 275 232 275H206C197.716 275 191 268.284 191 260V0Z" fill="black"/>
<path id="f_sharp1" d="M386 0H442V260C442 268.284 435.284 275 427 275H401C392.716 275 386 268.284 386 260V0Z" fill="black"/>
<path id="g_sharp1" d="M503 0H559V260C559 268.284 552.284 275 544 275H518C509.716 275 503 268.284 503 260V0Z" fill="black"/>
<path id="a_sharp2" d="M621 0H677V260C677 268.284 670.284 275 662 275H636C627.716 275 621 268.284 621 260V0Z" fill="black"/>
<path id="c_sharp2" d="M818 0H874V260C874 268.284 867.284 275 859 275H833C824.716 275 818 268.284 818 260V0Z" fill="black"/>
<path id="d_sharp2" d="M944 0H1000V260C1000 268.284 993.284 275 985 275H959C950.716 275 944 268.284 944 260V0Z" fill="black"/>
<path id="f_sharp2" d="M1138 0H1194V260C1194 268.284 1187.28 275 1179 275H1153C1144.72 275 1138 268.284 1138 260V0Z" fill="black"/>
<path id="g_sharp2" d="M1256 0H1312V260C1312 268.284 1305.28 275 1297 275H1271C1262.72 275 1256 268.284 1256 260V0Z" fill="black"/>
<path id="a_sharp3" d="M1374 0H1430V260C1430 268.284 1423.28 275 1415 275H1389C1380.72 275 1374 268.284 1374 260V0Z" fill="black"/>
<path id="c1" d="M0.5 15C0.5 6.99186 6.99187 0.5 15 0.5H59.5V265C59.5 273.56 66.4396 280.5 75 280.5H98.5V405C98.5 413.008 92.0081 419.5 84 419.5H15C6.99187 419.5 0.5 413.008 0.5 405V15Z" fill="white" stroke="black"/>
<path id="d1" d="M107.5 405V280.5H111C119.56 280.5 126.5 273.56 126.5 265V0.5H185.5V265C185.5 273.56 192.44 280.5 201 280.5H205.5V405C205.5 413.008 199.008 419.5 191 419.5H122C113.992 419.5 107.5 413.008 107.5 405Z" fill="white" stroke="black"/>
<path id="e1" d="M253.5 265V0.5H312.5V405C312.5 413.008 306.008 419.5 298 419.5H229C220.992 419.5 214.5 413.008 214.5 405V280.5H238C246.56 280.5 253.5 273.56 253.5 265Z" fill="white" stroke="black"/>
<path id="f1" d="M321.5 0.5H380.5V265C380.5 273.56 387.44 280.5 396 280.5H419.5V405C419.5 413.008 413.008 419.5 405 419.5H336C327.992 419.5 321.5 413.008 321.5 405V0.5Z" fill="white" stroke="black"/>
<path id="c2" d="M751.5 0.5H810.5V265C810.5 273.56 817.44 280.5 826 280.5H849.5V405C849.5 413.008 843.008 419.5 835 419.5H766C757.992 419.5 751.5 413.008 751.5 405V0.5Z" fill="white" stroke="black"/>
<path id="g1" d="M428.5 405V280.5H432C440.56 280.5 447.5 273.56 447.5 265V0.5H498.5V265C498.5 273.56 505.44 280.5 514 280.5H526.5V405C526.5 413.008 520.008 419.5 512 419.5H443C434.992 419.5 428.5 413.008 428.5 405Z" fill="white" stroke="black"/>
<path id="a2" d="M633.5 280.5V405C633.5 413.008 627.008 419.5 619 419.5H550C541.992 419.5 535.5 413.008 535.5 405V280.5H548C556.56 280.5 563.5 273.56 563.5 265V0.5H614.5V265C614.5 273.56 621.44 280.5 630 280.5H633.5Z" fill="white" stroke="black"/>
<path id="d2" d="M860.5 405V280.5H864C872.56 280.5 879.5 273.56 879.5 265V0.5H938.5V265C938.5 273.56 945.44 280.5 954 280.5H958.5V405C958.5 413.008 952.008 419.5 944 419.5H875C866.992 419.5 860.5 413.008 860.5 405Z" fill="white" stroke="black"/>
<path id="e2" d="M1006.5 265V0.5H1065.5V405C1065.5 413.008 1059.01 419.5 1051 419.5H982C973.992 419.5 967.5 413.008 967.5 405V280.5H991C999.56 280.5 1006.5 273.56 1006.5 265Z" fill="white" stroke="black"/>
<path id="f2" d="M1074.5 0.5H1133.5V265C1133.5 273.56 1140.44 280.5 1149 280.5H1172.5V405C1172.5 413.008 1166.01 419.5 1158 419.5H1089C1080.99 419.5 1074.5 413.008 1074.5 405V0.5Z" fill="white" stroke="black"/>
<path id="g2" d="M1181.5 405V280.5H1185C1193.56 280.5 1200.5 273.56 1200.5 265V0.5H1251.5V265C1251.5 273.56 1258.44 280.5 1267 280.5H1279.5V405C1279.5 413.008 1273.01 419.5 1265 419.5H1196C1187.99 419.5 1181.5 413.008 1181.5 405Z" fill="white" stroke="black"/>
<path id="a3" d="M1386.5 280.5V405C1386.5 413.008 1380.01 419.5 1372 419.5H1303C1294.99 419.5 1288.5 413.008 1288.5 405V280.5H1301C1309.56 280.5 1316.5 273.56 1316.5 265V0.5H1367.5V265C1367.5 273.56 1374.44 280.5 1383 280.5H1386.5Z" fill="white" stroke="black"/>
<path id="b3" d="M1434 0H1494V405C1494 413.284 1487.28 420 1479 420H1410C1401.72 420 1395 413.284 1395 405V280H1419C1427.28 280 1434 273.284 1434 265V0Z" fill="white"/>
<path id="c3" d="M1502 0H1591C1596.52 0 1601 4.47715 1601 10V400C1601 411.046 1592.05 420 1581 420H1522C1510.95 420 1502 411.046 1502 400V0Z" fill="white"/>
<path id="b2" d="M742.5 0.5H683.5V265C683.5 273.56 676.56 280.5 668 280.5H644.5V405C644.5 413.008 650.992 419.5 659 419.5H728C736.008 419.5 742.5 413.008 742.5 405V0.5Z" fill="white" stroke="black"/>
</svg>
