<svg width="139" height="63" viewBox="0 0 139 63" fill="none" xmlns="http://www.w3.org/2000/svg">
<g filter="url(#filter0_d_112_115)">
<rect x="4" y="4" width="131" height="55" rx="9" stroke="#8180FF" stroke-width="2" shape-rendering="crispEdges"/>
</g>
<path d="M62.642 42V20.1818H70.0142C71.7188 20.1818 73.1179 20.473 74.2116 21.0554C75.3054 21.6307 76.1151 22.4226 76.6406 23.4311C77.1662 24.4396 77.429 25.5866 77.429 26.8722C77.429 28.1577 77.1662 29.2976 76.6406 30.2919C76.1151 31.2862 75.3089 32.0675 74.2223 32.6357C73.1357 33.1967 71.7472 33.4773 70.0568 33.4773H64.0909V31.0909H69.9716C71.1364 31.0909 72.0739 30.9205 72.7841 30.5795C73.5014 30.2386 74.0199 29.7557 74.3395 29.1307C74.6662 28.4986 74.8295 27.7457 74.8295 26.8722C74.8295 25.9986 74.6662 25.2351 74.3395 24.5817C74.0128 23.9283 73.4908 23.424 72.7734 23.0689C72.0561 22.7067 71.108 22.5256 69.929 22.5256H65.2841V42H62.642ZM72.9119 32.1989L78.2812 42H75.2131L69.929 32.1989H72.9119ZM82.4315 42V20.1818H95.5991V22.5256H85.0735V29.8977H94.9173V32.2415H85.0735V39.6562H95.7696V42H82.4315ZM118.518 27H115.876C115.72 26.2401 115.446 25.5724 115.056 24.9972C114.672 24.4219 114.203 23.9389 113.649 23.5483C113.103 23.1506 112.495 22.8523 111.828 22.6534C111.16 22.4545 110.464 22.3551 109.74 22.3551C108.419 22.3551 107.222 22.6889 106.149 23.3565C105.084 24.0241 104.235 25.0078 103.603 26.3075C102.978 27.6072 102.666 29.2017 102.666 31.0909C102.666 32.9801 102.978 34.5746 103.603 35.8743C104.235 37.174 105.084 38.1577 106.149 38.8253C107.222 39.4929 108.419 39.8267 109.74 39.8267C110.464 39.8267 111.16 39.7273 111.828 39.5284C112.495 39.3295 113.103 39.0348 113.649 38.6442C114.203 38.2464 114.672 37.7599 115.056 37.1847C115.446 36.6023 115.72 35.9347 115.876 35.1818H118.518C118.319 36.2969 117.957 37.2947 117.431 38.1754C116.906 39.0561 116.252 39.8054 115.471 40.4233C114.69 41.0341 113.813 41.4993 112.84 41.8189C111.874 42.1385 110.84 42.2983 109.74 42.2983C107.879 42.2983 106.224 41.8438 104.775 40.9347C103.326 40.0256 102.186 38.733 101.355 37.0568C100.524 35.3807 100.109 33.392 100.109 31.0909C100.109 28.7898 100.524 26.8011 101.355 25.125C102.186 23.4489 103.326 22.1562 104.775 21.2472C106.224 20.3381 107.879 19.8835 109.74 19.8835C110.84 19.8835 111.874 20.0433 112.84 20.3629C113.813 20.6825 114.69 21.1513 115.471 21.7692C116.252 22.38 116.906 23.1257 117.431 24.0064C117.957 24.88 118.319 25.8778 118.518 27Z" fill="#8180FF"/>
<circle cx="33.5" cy="31.5" r="11.5" stroke="#DED8EA" stroke-width="2"/>
<defs>
<filter id="filter0_d_112_115" x="0" y="0" width="139" height="63" filterUnits="userSpaceOnUse" color-interpolation-filters="sRGB">
<feFlood flood-opacity="0" result="BackgroundImageFix"/>
<feColorMatrix in="SourceAlpha" type="matrix" values="0 0 0 0 0 0 0 0 0 0 0 0 0 0 0 0 0 0 127 0" result="hardAlpha"/>
<feMorphology radius="2" operator="dilate" in="SourceAlpha" result="effect1_dropShadow_112_115"/>
<feOffset/>
<feGaussianBlur stdDeviation="0.5"/>
<feComposite in2="hardAlpha" operator="out"/>
<feColorMatrix type="matrix" values="0 0 0 0 0.505882 0 0 0 0 0.501961 0 0 0 0 1 0 0 0 0.36 0"/>
<feBlend mode="normal" in2="BackgroundImageFix" result="effect1_dropShadow_112_115"/>
<feBlend mode="normal" in="SourceGraphic" in2="effect1_dropShadow_112_115" result="shape"/>
</filter>
</defs>
</svg>
